<?xml version="1.0" encoding="utf-8"?>
<svg xmlns="http://www.w3.org/2000/svg" fill="none" height="20" viewBox="0 0 20 20" width="20">
<path d="M10 0.246674C4.475 0.246674 0 4.72168 0 10.2467C0 14.6717 2.8625 18.4092 6.8375 19.7342C7.3375 19.8217 7.525 19.5217 7.525 19.2592C7.525 19.0217 7.5125 18.2342 7.5125 17.3967C5 17.8592 4.35 16.7842 4.15 16.2217C4.0375 15.9342 3.55 15.0467 3.125 14.8092C2.775 14.6217 2.275 14.1592 3.1125 14.1467C3.9 14.1342 4.4625 14.8717 4.65 15.1717C5.55 16.6842 6.9875 16.2592 7.5625 15.9967C7.65 15.3467 7.9125 14.9092 8.2 14.6592C5.975 14.4092 3.65 13.5467 3.65 9.72168C3.65 8.63418 4.0375 7.73418 4.675 7.03418C4.575 6.78418 4.225 5.75918 4.775 4.38418C4.775 4.38418 5.6125 4.12168 7.525 5.40918C8.325 5.18418 9.175 5.07168 10.025 5.07168C10.875 5.07168 11.725 5.18418 12.525 5.40918C14.4375 4.10918 15.275 4.38418 15.275 4.38418C15.825 5.75918 15.475 6.78418 15.375 7.03418C16.0125 7.73418 16.4 8.62168 16.4 9.72168C16.4 13.5592 14.0625 14.4092 11.8375 14.6592C12.2 14.9717 12.5125 15.5717 12.5125 16.5092C12.5125 17.8467 12.5 18.9217 12.5 19.2592C12.5 19.5217 12.6875 19.8342 13.1875 19.7342C17.1375 18.4092 20 14.6592 20 10.2467C20 4.72168 15.525 0.246674 10 0.246674Z" fill="#1B1F23"/>
</svg>